<svg xmlns="http://www.w3.org/2000/svg" xmlns:xlink="http://www.w3.org/1999/xlink" viewBox="0 0 920.89 732.73"><defs><style>.cls-1{fill:none;}.cls-2{fill:url(#未命名的渐变_25);}.cls-3{fill:url(#未命名的渐变_25-2);}.cls-4{fill:url(#未命名的渐变_22);}.cls-5{fill:#f5222d;}.cls-6{fill:url(#未命名的渐变_22-2);}.cls-7{fill:url(#未命名的渐变_25-3);}.cls-8{isolation:isolate;}.cls-9{fill:#c5c5c5;}.cls-10{clip-path:url(#clip-path);}.cls-11{fill:#cf1322;}.cls-12{fill:#fff;}.cls-13{fill:#ff4d4f;}.cls-14{fill:#dcdcdc;}.cls-15{clip-path:url(#clip-path-2);}.cls-16{fill:#ffccc7;}.cls-17{clip-path:url(#clip-path-3);}.cls-18{clip-path:url(#clip-path-4);}.cls-19{clip-path:url(#clip-path-5);}.cls-20{clip-path:url(#clip-path-6);}.cls-21{fill:url(#未命名的渐变_7);}.cls-22{clip-path:url(#clip-path-7);}.cls-23{clip-path:url(#clip-path-8);}.cls-24{fill:#2b304f;}.cls-25{fill:#da4147;}.cls-26{fill:#fcee21;}.cls-27{fill:#2c3154;}.cls-28{fill:#ffa34e;}.cls-29{fill:#ccc;}.cls-30{fill:#e6e6e6;}.cls-31{fill:#f7931e;}.cls-32{fill:#fbb03b;}</style><linearGradient id="未命名的渐变_25" x1="-1291.18" y1="376.43" x2="-992.45" y2="376.43" gradientTransform="translate(1796)" gradientUnits="userSpaceOnUse"><stop offset="0" stop-color="#fcbd60"/><stop offset="1" stop-color="#ff2a9d"/></linearGradient><linearGradient id="未命名的渐变_25-2" x1="8579.48" y1="382.29" x2="8944.52" y2="382.29" gradientTransform="matrix(-1, 0, 0, 1, 9500.37, 0)" xlink:href="#未命名的渐变_25"/><linearGradient id="未命名的渐变_22" x1="8724.31" y1="496.07" x2="9055.29" y2="496.07" gradientTransform="matrix(-1, 0, 0, 1, 9500.37, 0)" gradientUnits="userSpaceOnUse"><stop offset="0" stop-color="#ffe496"/><stop offset="1" stop-color="#ff446f"/></linearGradient><linearGradient id="未命名的渐变_22-2" x1="8677.93" y1="423.77" x2="8969.69" y2="423.77" gradientTransform="matrix(-1, 0, 0, 1, 9113.12, 0)" xlink:href="#未命名的渐变_22"/><linearGradient id="未命名的渐变_25-3" x1="8617.66" y1="526.63" x2="8942.74" y2="526.63" gradientTransform="matrix(-1, 0, 0, 1, 9113.12, 0)" xlink:href="#未命名的渐变_25"/><clipPath id="clip-path"><polygon class="cls-1" points="334.43 411.02 475.39 329.11 475.02 461.46 334.06 543.38 334.43 411.02"/></clipPath><clipPath id="clip-path-2"><polygon class="cls-1" points="334.06 543.38 475.02 461.46 659.42 567.93 518.47 649.85 334.06 543.38"/></clipPath><clipPath id="clip-path-3"><polygon class="cls-1" points="518.47 649.85 659.42 567.93 659.19 650.81 518.23 732.73 518.47 649.85"/></clipPath><clipPath id="clip-path-4"><polygon class="cls-1" points="334.99 213.83 475.95 131.92 475.63 246.23 334.67 328.14 334.99 213.83"/></clipPath><clipPath id="clip-path-5"><polygon class="cls-1" points="334.67 328.14 475.63 246.23 626.87 333.55 485.91 415.46 334.67 328.14"/></clipPath><clipPath id="clip-path-6"><polygon class="cls-1" points="485.91 415.46 626.87 333.55 626.64 416.43 485.68 498.35 485.91 415.46"/></clipPath><linearGradient id="未命名的渐变_7" x1="518.47" y1="407.32" x2="247.73" y2="407.32" gradientUnits="userSpaceOnUse"><stop offset="0" stop-color="#f5222d"/><stop offset="1" stop-color="#cf1322"/></linearGradient><clipPath id="clip-path-7"><polygon class="cls-1" points="513.23 234.39 654.19 152.47 653.96 234.69 513 316.6 513.23 234.39"/></clipPath><clipPath id="clip-path-8"><polygon class="cls-1" points="249.13 81.92 390.09 0 654.19 152.47 513.23 234.39 249.13 81.92"/></clipPath></defs><g id="图层_2" data-name="图层 2"><g id="图层_1-2" data-name="图层 1"><path class="cls-2" d="M803.55,218.52a12,12,0,1,0-14.1,11.83c-7.14,66.41-39.43,99.18-65.92,115.06a137.42,137.42,0,0,1-35.67,14.88c-.18-1.29-1.3-2.72-3.15-4.07,63.12-39,70.17-116.78,70.71-142.53a12,12,0,1,0-2.4-.23c-.5,25.26-7.35,103-70.6,141.33a32.72,32.72,0,0,0-10.15-3.29c36.07-41.56,43-122.65,44.29-145.12a10.84,10.84,0,1,0-2.41-.06c-1.26,22.59-8.29,104.35-44.8,144.84-1-.09-2.06-.14-3.12-.14-.84,0-1.67,0-2.49.08L652.47,213.63a12.07,12.07,0,1,0-2.43-.11l11.3,137.82a37.4,37.4,0,0,0-6.75,1.52C620,334.67,609.72,257,606.94,225.65a12,12,0,1,0-2.48-.06c2.6,31.08,12.47,107.75,47.21,128.4a19.4,19.4,0,0,0-5.08,3.17c-61.48-17.41-78.37-87.88-82.63-114.88a10.72,10.72,0,1,0-2.52.33l.14,0c4.3,27.29,21.36,98.34,83.37,116.6a3.31,3.31,0,0,0-.4,1.46,3.77,3.77,0,0,0,1.77,2.86C588.06,365,556.87,336,540.82,310.69c-12.09-19.08-17.59-38.86-19.94-50.2a10.77,10.77,0,1,0-5.21,1.39,10.63,10.63,0,0,0,2.94-.46c2.45,11.61,8,31.39,20.13,50.49,16,25.25,46.6,54.09,103.14,54.09,2.9,0,5.91-.11,9-.26a49.63,49.63,0,0,0,14.7,2.13c15.16,159.84-18.31,194.61-18.66,194.94l2.5,2.61,2.47,2.65c1.51-1.42,36.46-36.15,20.92-200.53,6.45-.67,11.58-2.33,13.86-4.45a140.06,140.06,0,0,0,38-15.56c27-16.16,60-49.5,67.19-117A12,12,0,0,0,803.55,218.52Z"/><path class="cls-3" d="M643.84,468.16c-2.41-7.23-36.17-132.54,43.36-53,0,0,24.09,33.72,9.64,101.18C692,550.06,773.93,492.25,733,395.88s45.78-190.31,72.28-144.54-14.46,137.32-26.5,166.23,0,69.86,28.91,31.31,53-118,45.77-199.95S884.75,109.2,896.79,109.2s24.09,7.23,24.09,38.55c0,0,7,483.62-333.46,507.61a5.81,5.81,0,0,1-5.26-9,56.37,56.37,0,0,0,8.68-38.52c-4.82-38.54-16.86-48.18-31.32-65s16.86-72.27,41-16.87,16.86,72.28,48.18,67.46-2.41-118-4.82-125.27-38.55-130.09,43.36-53"/><path class="cls-4" d="M561.07,544.08a6.76,6.76,0,0,0,7.62,3.26c3-.91,6-3.92,6-12.35,0-14.89-13.15-133.13-16.22-160.56a39.42,39.42,0,0,1,.69-12.95c3.1-14,12.08-41.37,32.4-19.22,23.66,25.82,7,161.17,3.14,189.81a8.3,8.3,0,0,0,7.69,9.49c4.55.17,11.19-1.75,20.48-9,18.2-14.15,50-77.52,59.72-97.52A34,34,0,0,1,697,419.78c7.63-4,17.51-5.1,24.67,9.21s12,26.5-9.64,50.59C694.6,499,654.21,523,644.58,549.45s24.09,12,24.09,12S757.8,501.26,772.26,523c7.22,10.84,3,20.47-3,27.4a40.71,40.71,0,0,1-22.54,12.81c-19.57,4.06-66.17,15.55-75.63,34.47C657.45,624.88,606,669.9,562.67,655.44s-4.82-55.4-55.41-86.72-96.37-98.77-26.5-79.5C533.82,503.86,555.42,534.46,561.07,544.08Z"/><path class="cls-5" d="M286.85,594.91S130.47,462.21,59.7,311.47a30.28,30.28,0,0,0-8.66-11C36.19,288.77-1.21,266.27,0,337.92,1.71,348.68,15.08,487.16,286.85,594.91Z"/><path class="cls-6" d="M364.87,492.4c1.93-5.77,28.91-105.93-34.66-42.36,0,0-19.26,27-7.7,80.87,3.85,27-61.62-19.25-28.88-96.27S257,282.52,235.86,319.11,247.41,428.86,257,452s0,55.84-23.11,25-42.36-94.35-36.58-159.82-25-111.68-34.66-111.68-19.26,5.78-19.26,30.81c0,0-5.63,386.55,266.53,405.72a4.64,4.64,0,0,0,4.21-7.16,45,45,0,0,1-6.94-30.79c3.85-30.81,13.48-38.51,25-52s-13.48-57.76-32.73-13.47S386.05,596.38,361,592.53s1.92-94.35,3.85-100.13,30.81-104-34.66-42.36"/><path class="cls-7" d="M312,612s-36.58-21.18-71.24-17.33-86.65-15.4-65.47-36.58c20.73-20.73,76.49-13.8,98.71,8.16a3.78,3.78,0,0,0,4.52.76c1.22-.72,1.73-2.16-1.18-5.07-5.77-5.78-63.54-42.36-23.1-63.54,35.7-18.7,56.39,45.16,60.75,60.37a5.22,5.22,0,0,0,5.44,3.89c2.16-.24,4.09-1.68,3.13-6.5-2.67-13.35-11.56-44.28-21.19-61.61-6.74-12.14,0-61.62,25-52S364,498.37,364,527.25c0,11.55,9.63-7.7,9.63-7.7s32.73-90.5,48.14-57.77-9.51,88.46-25,104c-5.78,5.78,9.62,1.93,9.62,1.93s78.95-19.26,88.58,15.4S379.41,575.39,325.49,612Z"/><g class="cls-8"><polygon class="cls-9" points="334.43 411.02 475.39 329.11 475.02 461.46 334.06 543.38 334.43 411.02"/><g class="cls-8"><g class="cls-10"><polyline class="cls-11" points="475.01 461.46 475.39 329.11 461.3 337.3 460.92 469.65 475.01 461.46"/><polyline class="cls-12" points="460.92 469.65 461.3 337.3 447.2 345.49 446.82 477.85 460.92 469.65"/><polyline class="cls-13" points="446.82 477.85 447.2 345.49 433.1 353.68 432.73 486.04 446.82 477.85"/><polyline class="cls-12" points="432.73 486.04 433.1 353.68 419.01 361.88 418.63 494.23 432.73 486.04"/><polyline class="cls-13" points="418.63 494.23 419.01 361.88 404.91 370.06 404.54 502.42 418.63 494.23"/><polyline class="cls-12" points="404.54 502.42 404.91 370.06 390.82 378.26 390.44 510.61 404.54 502.42"/><polyline class="cls-13" points="390.44 510.61 390.82 378.26 376.72 386.45 376.34 518.8 390.44 510.61"/><polyline class="cls-12" points="376.34 518.8 376.72 386.45 362.63 394.64 362.25 527 376.34 518.8"/><polyline class="cls-13" points="362.25 527 362.63 394.64 348.53 402.83 348.15 535.19 362.25 527"/><polyline class="cls-12" points="348.15 535.19 348.53 402.83 334.43 411.02 334.06 543.38 348.15 535.19"/></g></g><polygon class="cls-14" points="334.06 543.38 475.02 461.46 659.42 567.93 518.47 649.85 334.06 543.38"/><g class="cls-8"><g class="cls-15"><polyline class="cls-11" points="659.42 567.93 475.02 461.46 460.92 469.65 645.33 576.12 659.42 567.93"/><polyline class="cls-16" points="645.33 576.12 460.92 469.65 446.82 477.85 631.23 584.32 645.33 576.12"/><polyline class="cls-11" points="631.23 584.32 446.82 477.85 432.73 486.04 617.14 592.51 631.23 584.32"/><polyline class="cls-16" points="617.14 592.51 432.73 486.04 418.63 494.23 603.04 600.7 617.14 592.51"/><polyline class="cls-11" points="603.04 600.7 418.63 494.23 404.54 502.42 588.94 608.89 603.04 600.7"/><polyline class="cls-16" points="588.94 608.89 404.54 502.42 390.44 510.61 574.85 617.08 588.94 608.89"/><polyline class="cls-11" points="574.85 617.08 390.44 510.61 376.35 518.81 560.75 625.27 574.85 617.08"/><polyline class="cls-16" points="560.75 625.27 376.35 518.81 362.25 527 546.66 633.46 560.75 625.27"/><polyline class="cls-11" points="546.66 633.46 362.25 527 348.15 535.19 532.56 641.66 546.66 633.46"/><polyline class="cls-16" points="532.56 641.66 348.15 535.19 334.06 543.38 518.47 649.85 532.56 641.66"/></g></g><polygon class="cls-9" points="518.47 649.85 659.42 567.93 659.19 650.81 518.23 732.73 518.47 649.85"/><g class="cls-8"><g class="cls-17"><polyline class="cls-13" points="659.19 650.81 659.42 567.93 645.33 576.12 645.09 659 659.19 650.81"/><polyline class="cls-12" points="645.09 659 645.33 576.12 631.23 584.32 631 667.2 645.09 659"/><polyline class="cls-13" points="631 667.2 631.23 584.32 617.14 592.51 616.9 675.39 631 667.2"/><polyline class="cls-12" points="616.9 675.39 617.14 592.51 603.04 600.7 602.8 683.58 616.9 675.39"/><polyline class="cls-13" points="602.8 683.58 603.04 600.7 588.95 608.89 588.71 691.77 602.8 683.58"/><polyline class="cls-12" points="588.71 691.77 588.95 608.89 574.85 617.08 574.62 699.96 588.71 691.77"/><polyline class="cls-13" points="574.62 699.96 574.85 617.08 560.75 625.27 560.52 708.15 574.62 699.96"/><polyline class="cls-12" points="560.52 708.15 560.75 625.27 546.66 633.47 546.42 716.34 560.52 708.15"/><polyline class="cls-13" points="546.42 716.34 546.66 633.47 532.56 641.66 532.33 724.54 546.42 716.34"/><polyline class="cls-12" points="532.33 724.54 532.56 641.66 518.47 649.85 518.23 732.73 532.33 724.54"/></g></g><polygon class="cls-9" points="334.99 213.83 475.95 131.92 475.63 246.23 334.67 328.14 334.99 213.83"/><g class="cls-8"><g class="cls-18"><polyline class="cls-11" points="475.63 246.23 475.95 131.92 461.86 140.11 461.53 254.42 475.63 246.23"/><polyline class="cls-12" points="461.53 254.42 461.86 140.11 447.76 148.3 447.43 262.61 461.53 254.42"/><polyline class="cls-11" points="447.43 262.61 447.76 148.3 433.66 156.49 433.34 270.8 447.43 262.61"/><polyline class="cls-12" points="433.34 270.8 433.66 156.49 419.56 164.69 419.24 278.99 433.34 270.8"/><polyline class="cls-13" points="419.24 278.99 419.56 164.69 405.47 172.88 405.15 287.18 419.24 278.99"/><polyline class="cls-12" points="405.15 287.18 405.47 172.88 391.38 181.07 391.05 295.38 405.15 287.18"/><polyline class="cls-13" points="391.05 295.38 391.38 181.07 377.28 189.26 376.95 303.57 391.05 295.38"/><polyline class="cls-12" points="376.95 303.57 377.28 189.26 363.18 197.45 362.86 311.76 376.95 303.57"/><polyline class="cls-13" points="362.86 311.76 363.18 197.45 349.09 205.64 348.76 319.95 362.86 311.76"/><polyline class="cls-12" points="348.76 319.95 349.09 205.64 334.99 213.83 334.67 328.14 348.76 319.95"/></g></g><polygon class="cls-14" points="334.67 328.14 475.63 246.23 626.87 333.55 485.91 415.46 334.67 328.14"/><g class="cls-8"><g class="cls-19"><polyline class="cls-11" points="626.87 333.55 475.63 246.23 461.53 254.42 612.78 341.74 626.87 333.55"/><polyline class="cls-16" points="612.78 341.74 461.53 254.42 447.43 262.61 598.68 349.93 612.78 341.74"/><polyline class="cls-11" points="598.68 349.93 447.43 262.61 433.34 270.8 584.58 358.12 598.68 349.93"/><polyline class="cls-16" points="584.58 358.12 433.34 270.8 419.24 278.99 570.49 366.31 584.58 358.12"/><polyline class="cls-11" points="570.49 366.31 419.24 278.99 405.15 287.19 556.39 374.51 570.49 366.31"/><polyline class="cls-16" points="556.39 374.51 405.15 287.19 391.05 295.38 542.3 382.7 556.39 374.51"/><polyline class="cls-11" points="542.3 382.7 391.05 295.38 376.96 303.57 528.2 390.89 542.3 382.7"/><polyline class="cls-16" points="528.2 390.89 376.96 303.57 362.86 311.76 514.11 399.08 528.2 390.89"/><polyline class="cls-11" points="514.11 399.08 362.86 311.76 348.76 319.95 500.01 407.27 514.11 399.08"/><polyline class="cls-16" points="500.01 407.27 348.76 319.95 334.67 328.14 485.91 415.46 500.01 407.27"/></g></g><polygon class="cls-9" points="485.91 415.46 626.87 333.55 626.64 416.43 485.68 498.35 485.91 415.46"/><g class="cls-8"><g class="cls-20"><polyline class="cls-13" points="626.64 416.43 626.87 333.55 612.78 341.74 612.54 424.62 626.64 416.43"/><polyline class="cls-12" points="612.54 424.62 612.78 341.74 598.68 349.93 598.45 432.81 612.54 424.62"/><polyline class="cls-13" points="598.45 432.81 598.68 349.93 584.59 358.12 584.35 441 598.45 432.81"/><polyline class="cls-12" points="584.35 441 584.59 358.12 570.49 366.32 570.25 449.19 584.35 441"/><polyline class="cls-13" points="570.25 449.19 570.49 366.32 556.39 374.51 556.16 457.39 570.25 449.19"/><polyline class="cls-12" points="556.16 457.39 556.39 374.51 542.3 382.7 542.06 465.58 556.16 457.39"/><polyline class="cls-13" points="542.06 465.58 542.3 382.7 528.2 390.89 527.97 473.77 542.06 465.58"/><polyline class="cls-12" points="527.97 473.77 528.2 390.89 514.11 399.08 513.87 481.96 527.97 473.77"/><polyline class="cls-13" points="513.87 481.96 514.11 399.08 500.01 407.27 499.77 490.15 513.87 481.96"/><polyline class="cls-12" points="499.77 490.15 500.01 407.27 485.91 415.46 485.68 498.34 499.77 490.15"/></g></g><polygon class="cls-21" points="513.23 234.39 513 316.6 334.99 213.83 334.67 328.14 485.91 415.46 485.68 498.35 334.43 411.02 334.06 543.38 518.47 649.85 518.23 732.73 247.73 576.55 249.13 81.92 513.23 234.39"/><polygon class="cls-9" points="513.23 234.39 654.19 152.47 653.96 234.69 513 316.6 513.23 234.39"/><g class="cls-8"><g class="cls-22"><polyline class="cls-13" points="653.95 234.69 654.19 152.48 640.09 160.67 639.86 242.88 653.95 234.69"/><polyline class="cls-12" points="639.86 242.88 640.09 160.67 626 168.86 625.76 251.07 639.86 242.88"/><polyline class="cls-13" points="625.76 251.07 626 168.86 611.9 177.05 611.67 259.26 625.76 251.07"/><polyline class="cls-12" points="611.67 259.26 611.9 177.05 597.8 185.24 597.57 267.45 611.67 259.26"/><polyline class="cls-13" points="597.57 267.45 597.8 185.24 583.71 193.43 583.48 275.65 597.57 267.45"/><polyline class="cls-12" points="583.48 275.65 583.71 193.43 569.61 201.63 569.38 283.84 583.48 275.65"/><polyline class="cls-13" points="569.38 283.84 569.61 201.63 555.52 209.82 555.28 292.03 569.38 283.84"/><polyline class="cls-12" points="555.28 292.03 555.52 209.82 541.42 218.01 541.19 300.22 555.28 292.03"/><polyline class="cls-13" points="541.19 300.22 541.42 218.01 527.32 226.2 527.09 308.41 541.19 300.22"/><polyline class="cls-12" points="527.09 308.41 527.32 226.2 513.23 234.39 513 316.6 527.09 308.41"/></g></g><polygon class="cls-14" points="249.13 81.92 390.09 0 654.19 152.47 513.23 234.39 249.13 81.92"/><g class="cls-8"><g class="cls-23"><polyline class="cls-11" points="654.19 152.47 390.09 0 376 8.19 640.09 160.67 654.19 152.47"/><polyline class="cls-16" points="640.09 160.67 376 8.19 361.9 16.39 625.99 168.86 640.09 160.67"/><polyline class="cls-11" points="625.99 168.86 361.9 16.39 347.81 24.58 611.9 177.05 625.99 168.86"/><polyline class="cls-16" points="611.9 177.05 347.81 24.58 333.71 32.77 597.8 185.24 611.9 177.05"/><polyline class="cls-11" points="597.8 185.24 333.71 32.77 319.62 40.96 583.71 193.43 597.8 185.24"/><polyline class="cls-16" points="583.71 193.43 319.62 40.96 305.52 49.15 569.61 201.62 583.71 193.43"/><polyline class="cls-11" points="569.61 201.62 305.52 49.15 291.42 57.34 555.51 209.82 569.61 201.62"/><polyline class="cls-16" points="555.51 209.82 291.42 57.34 277.33 65.53 541.42 218.01 555.51 209.82"/><polyline class="cls-11" points="541.42 218.01 277.33 65.53 263.23 73.73 527.32 226.2 541.42 218.01"/><polyline class="cls-16" points="527.32 226.2 263.23 73.73 249.14 81.92 513.23 234.39 527.32 226.2"/></g></g></g><path class="cls-24" d="M409.83,70.79s-7,.45-2-9.46S415.69,48,413.43,38.8,419.06,14,428.75,16.5s17.8,12.62,17.8,16.9,3.15,23.87-4.73,32S409.83,70.79,409.83,70.79Z"/><path class="cls-25" d="M404.65,89.49s2.48-31.88,17.57-37.62c14,0,22.64,2.59,30.3,35.25C409.27,92.3,404.65,89.49,404.65,89.49Z"/><polygon class="cls-26" points="400.29 85.96 454.96 85.96 450 121.1 427.63 125.61 404.65 122 400.29 85.96"/><path class="cls-16" d="M422.44,34.63s-7.09-1-2.7,5.41,5.5,7.48,4.84,11.83c-.9,6,5.64,11.15,8.34,4.5.34-6.64,1.35-9,2.14-10.25s6.19-6.42,6.19-6.42,1.41-7.15-3-3.26C435.85,38.5,426.39,42.74,422.44,34.63Z"/><path class="cls-16" d="M448.89,101.43h4.33a1.22,1.22,0,0,1,1.22,1.22v6.93a1.54,1.54,0,0,1-1.54,1.54h-4a1.22,1.22,0,0,1-1.22-1.22v-7.26a1.22,1.22,0,0,1,1.22-1.22Z"/><path class="cls-16" d="M400.46,100.07h4a1.54,1.54,0,0,1,1.54,1.54v6.93a1.22,1.22,0,0,1-1.22,1.22h-4.33a1.22,1.22,0,0,1-1.22-1.22v-7.26a1.22,1.22,0,0,1,1.22-1.22Z" transform="translate(805.24 209.84) rotate(180)"/><path class="cls-27" d="M406.9,119.15l-26.13-5.56s-15.17,1.8-7.66,12.77c10.21,6.75,44.6,28.83,44.6,28.83l20.43-8.41s38.59-25.23,38.74-25.68,9.16-15.84-7.51-14.83c0-.19-30.48,12.58-30.48,12.58Z"/><path class="cls-28" d="M418.16,155.9s-.67-4.51,2.14-4.85,13.07-5.74,13.07-5.74,3.83-.34,1.8,5.29a42,42,0,0,1-3.16,6.71,4.53,4.53,0,0,1-5.61,1.92Z"/><path class="cls-28" d="M400.93,144s-7,6-3.83,7.77,15.09-.67,15.09-.67Z"/><g class="cls-8"><polygon class="cls-12" points="442.22 314.74 442.14 340 418.13 353.96 418.21 328.69 442.22 314.74"/><polygon class="cls-29" points="418.21 328.69 418.13 353.96 393.97 340 394.04 314.74 418.21 328.69"/><polygon class="cls-30" points="442.22 314.74 418.21 328.69 394.04 314.74 418.05 300.78 442.22 314.74"/></g><g class="cls-8"><polygon class="cls-26" points="542.59 567.87 542.52 593.14 518.51 607.09 518.58 581.82 542.59 567.87"/><polygon class="cls-31" points="518.58 581.82 518.51 607.09 494.34 593.14 494.41 567.87 518.58 581.82"/><polygon class="cls-32" points="542.59 567.87 518.58 581.82 494.41 567.87 518.42 553.92 542.59 567.87"/></g></g></g></svg>